<?xml version="1.0" standalone="no"?>
<!DOCTYPE svg PUBLIC "-//W3C//DTD SVG 20010904//EN"
 "http://www.w3.org/TR/2001/REC-SVG-20010904/DTD/svg10.dtd">
<svg version="1.0" xmlns="http://www.w3.org/2000/svg"
 width="300.000000pt" height="300.000000pt" viewBox="0 0 300.000000 300.000000"
 preserveAspectRatio="xMidYMid meet">
<metadata>
Created by potrace 1.10, written by Peter Selinger 2001-2011
</metadata>
<g transform="translate(0.000000,300.000000) scale(0.100000,-0.100000)"
fill="#FFFFFF" stroke="none">
<path d="M6 2890 c5 -4 28 -10 51 -12 23 -2 39 -1 35 3 -11 10 -96 19 -86 9z"/>
<path d="M111 2876 c4 -4 40 -9 163 -21 28 -3 76 -10 108 -16 32 -7 61 -9 64
-6 6 5 -83 22 -198 37 -77 10 -144 13 -137 6z"/>
<path d="M463 2824 c3 -4 19 -8 34 -10 15 -1 44 -6 63 -10 42 -8 48 -9 124
-18 33 -4 63 -9 67 -12 12 -7 -1 -68 -56 -264 -29 -102 -76 -270 -105 -375
-28 -104 -60 -217 -69 -250 -10 -33 -31 -107 -46 -165 -15 -58 -54 -199 -87
-315 -32 -115 -68 -241 -78 -280 -11 -38 -46 -164 -79 -280 -32 -116 -65 -236
-72 -268 -13 -54 -15 -57 -39 -53 -89 16 -120 17 -120 2 0 -19 21 -25 98 -27
65 -2 81 6 82 42 0 8 25 105 56 215 30 109 66 240 79 289 21 82 58 216 114
412 12 40 33 117 47 170 43 163 59 220 118 433 32 113 66 237 77 275 10 39 38
138 63 222 32 110 43 163 39 191 l-5 39 -147 21 c-160 24 -167 25 -158 16z"/>
<path d="M993 2755 c-44 -19 -66 -58 -98 -178 -14 -56 -55 -203 -90 -327 -35
-124 -78 -277 -95 -340 -18 -63 -63 -223 -100 -355 -38 -132 -90 -316 -115
-410 -26 -93 -65 -230 -86 -304 -48 -165 -49 -189 -8 -236 17 -19 38 -35 46
-35 8 0 11 -5 7 -11 -4 -7 0 -9 13 -5 27 9 1363 -261 1374 -277 4 -5 11 -7 17
-3 6 4 62 -5 124 -18 144 -31 197 -39 180 -28 -10 7 -5 11 16 15 19 4 41 20
58 43 29 37 39 78 180 704 75 334 88 390 163 715 39 171 89 386 111 479 22 93
40 172 40 175 0 3 4 0 9 -8 6 -10 9 -2 8 22 0 21 -4 37 -9 37 -4 0 -5 8 -1 18
3 9 3 14 -1 10 -4 -3 -22 9 -39 28 l-32 33 -360 62 c-198 33 -448 76 -555 94
-754 130 -704 123 -757 100z m210 -90 c342 -59 1131 -193 1272 -216 147 -25
165 -31 165 -63 0 -13 -21 -111 -46 -217 -87 -371 -280 -1219 -355 -1559 -57
-261 -63 -278 -97 -287 -15 -3 -111 12 -231 36 -113 23 -482 98 -819 166 -337
69 -617 127 -623 130 -17 11 -9 46 82 374 50 179 99 355 109 391 10 36 43 157
75 270 121 435 159 575 224 822 38 143 46 164 63 171 22 9 34 8 181 -18z
m1485 -250 c11 -24 11 -26 -68 -370 -11 -44 -46 -199 -79 -345 -33 -146 -85
-375 -116 -510 -75 -326 -106 -463 -149 -660 -42 -191 -57 -230 -96 -253 -38
-23 -48 -22 -270 24 -107 22 -262 53 -345 69 -82 17 -168 34 -190 40 -22 5
-96 21 -165 35 -186 38 -222 47 -217 52 5 4 471 -87 885 -173 117 -24 226 -44
242 -44 34 0 83 38 98 77 6 16 23 82 37 148 15 66 48 217 75 335 143 626 246
1077 290 1260 63 270 66 285 46 315 -20 30 -20 36 -2 29 7 -3 18 -16 24 -29z
m-2223 -1802 c2 -3 85 -21 135 -29 45 -8 52 -14 15 -14 -44 0 -158 31 -177 48
-10 8 -18 24 -18 35 0 17 3 16 22 -9 12 -16 22 -30 23 -31z m277 -59 c40 -8
89 -17 109 -20 20 -3 58 -11 85 -19 80 -22 6 -18 -89 4 -45 11 -102 22 -127
26 -25 3 -52 10 -60 15 -21 14 -3 12 82 -6z"/>
<path d="M1661 2063 c-6 -21 -18 -70 -27 -110 -9 -40 -20 -70 -25 -67 -24 15
-49 85 -43 122 4 28 2 41 -10 52 -26 21 -41 -3 -38 -63 2 -43 9 -62 43 -111
l42 -59 -13 -53 c-7 -30 -16 -54 -19 -54 -14 0 -46 67 -51 105 -6 47 -30 54
-44 13 -12 -33 6 -77 54 -132 34 -38 34 -34 9 -130 l-11 -39 -30 54 c-95 167
-97 176 -63 304 38 142 38 143 32 160 -12 30 -35 3 -47 -56 -7 -32 -16 -59
-21 -59 -4 0 -16 13 -25 30 -19 31 -39 44 -55 34 -18 -11 -8 -33 34 -71 27
-24 41 -45 39 -55 -5 -25 -13 -22 -41 12 -13 17 -29 30 -37 30 -28 0 -24 -23
15 -69 23 -27 41 -58 41 -70 0 -12 7 -37 14 -56 8 -19 12 -35 8 -35 -18 1
-105 74 -122 103 -11 18 -20 50 -20 73 0 46 -20 81 -40 69 -13 -8 -9 -79 6
-119 6 -17 4 -18 -17 -12 -73 20 -81 20 -77 -4 2 -19 14 -26 66 -40 35 -10 73
-27 85 -38 12 -11 54 -40 92 -64 58 -37 105 -82 105 -101 0 -6 -158 37 -166
46 -4 4 -17 7 -29 7 -16 0 -36 18 -65 56 -37 49 -45 55 -72 52 -39 -4 -48 -25
-16 -37 22 -8 78 -70 78 -86 0 -3 -9 -1 -19 5 -11 5 -34 10 -51 10 -25 0 -31
-3 -26 -16 3 -9 6 -18 6 -20 0 -2 17 -4 38 -4 l37 -1 -22 -18 c-53 -44 -1 -53
58 -10 23 16 37 19 79 13 58 -8 56 -12 -17 -49 -37 -18 -53 -32 -53 -46 0 -10
5 -19 10 -19 15 0 67 27 116 61 37 25 44 27 88 17 70 -15 73 -29 37 -172 -17
-66 -33 -121 -36 -124 -3 -3 -57 3 -120 14 -97 17 -118 18 -127 7 -22 -27 -10
-30 387 -97 112 -20 143 -22 153 -12 22 22 -6 34 -119 52 -57 9 -109 18 -116
19 -18 6 49 252 73 271 14 11 34 13 74 9 30 -3 56 -9 58 -13 1 -4 17 -29 35
-56 38 -59 64 -78 76 -57 12 19 3 40 -31 74 -44 45 -38 55 28 43 42 -7 58 -15
64 -30 13 -35 48 -62 62 -48 9 9 9 15 0 24 -24 24 -13 36 28 31 32 -5 40 -3
40 10 0 15 -17 21 -90 30 -24 2 -24 3 9 21 19 10 55 24 80 30 29 7 46 17 46
26 0 27 -49 22 -128 -15 -74 -33 -84 -35 -183 -35 -61 0 -104 4 -104 10 0 33
233 103 347 104 81 1 113 13 99 35 -4 6 -29 11 -57 11 l-49 0 45 55 c49 60 56
85 25 85 -12 0 -28 -16 -44 -43 -39 -66 -75 -95 -156 -122 -40 -14 -75 -23
-77 -21 -2 2 7 12 21 23 13 11 33 34 44 52 12 20 39 42 68 55 27 13 55 30 63
39 22 28 -11 32 -59 7 -47 -24 -52 -23 -43 8 3 13 16 25 32 28 90 20 123 42
96 64 -12 10 -23 7 -61 -15 -25 -15 -48 -25 -50 -22 -2 2 3 23 11 47 19 53 19
80 1 80 -21 0 -24 -7 -61 -151 -29 -112 -39 -137 -67 -166 -32 -33 -198 -157
-198 -147 0 2 8 32 17 65 15 54 21 63 57 81 64 32 102 64 116 98 10 23 10 34
2 42 -14 14 -47 -13 -56 -45 -6 -25 -86 -76 -86 -55 1 7 7 35 14 61 11 44 17
51 72 81 49 27 64 42 89 89 23 44 27 59 18 68 -17 17 -39 -3 -53 -47 -12 -35
-91 -105 -98 -86 -1 4 9 47 23 95 30 105 31 117 5 117 -14 0 -22 -10 -29 -37z"/>
<path d="M277 2213 c-4 -3 -7 -20 -8 -37 0 -17 -4 -40 -9 -51 -6 -16 -9 -8
-15 33 -7 50 -17 63 -30 42 -4 -6 -11 -8 -16 -5 -5 4 -9 1 -9 -4 0 -6 4 -11
10 -11 13 0 32 -39 36 -72 3 -26 2 -27 -24 -16 -34 15 -58 36 -50 44 4 3 17
-1 30 -10 39 -28 43 -17 7 20 -34 35 -34 35 -41 12 -3 -13 -6 -36 -7 -52 -1
-21 3 -27 14 -22 8 3 27 1 41 -4 22 -9 25 -14 19 -40 -5 -23 -3 -30 9 -30 9 0
16 8 16 19 0 32 66 64 76 36 3 -8 12 -11 20 -8 12 4 12 8 2 20 -8 11 -24 14
-50 10 -45 -6 -48 2 -10 25 36 22 77 66 69 75 -4 4 -26 -11 -48 -33 -40 -39
-40 -39 -29 -9 6 16 16 35 21 42 17 20 -6 44 -24 26z"/>
<path d="M350 2135 c-7 -8 -9 -23 -5 -32 6 -16 8 -15 20 7 8 14 14 28 15 33 0
12 -17 8 -30 -8z"/>
<path d="M271 2036 c-7 -8 -8 -16 -4 -19 12 -7 53 11 53 23 0 15 -36 12 -49
-4z"/>
<path d="M2846 1424 c-3 -26 -6 -61 -5 -78 1 -31 1 -31 14 9 15 46 19 115 6
115 -4 0 -11 -21 -15 -46z"/>
<path d="M2790 1438 c-11 -13 -23 -32 -25 -43 -5 -28 -35 -172 -45 -220 -5
-22 -14 -67 -20 -100 -6 -33 -18 -89 -25 -125 -23 -108 -26 -123 -35 -175 -23
-125 -71 -355 -90 -430 -5 -22 -9 -58 -9 -80 0 -34 2 -37 9 -18 6 15 18 23 34
23 18 0 24 -4 20 -15 -4 -8 -2 -15 4 -15 9 0 22 22 22 37 0 3 -18 3 -40 1 -22
-2 -40 -3 -40 -3 0 1 14 64 30 141 17 76 54 252 81 389 46 231 94 462 120 578
7 28 16 47 25 47 8 0 14 7 14 15 0 20 -6 19 -30 -7z"/>
<path d="M2865 1337 c-9 -38 -101 -488 -166 -812 -34 -171 -66 -316 -72 -322
-13 -18 -27 -16 -27 2 0 15 -31 21 -43 9 -9 -10 63 -64 84 -64 27 0 37 26 64
172 14 73 39 198 55 278 17 80 46 224 65 320 19 96 41 202 49 235 7 33 16 90
20 126 6 55 5 67 -8 72 -11 4 -17 -1 -21 -16z"/>
<path d="M380 582 c12 -25 66 -62 90 -62 8 1 -1 7 -20 16 -19 8 -46 27 -58 42
-20 23 -22 24 -12 4z"/>
<path d="M2652 432 c-12 -57 -22 -110 -21 -120 0 -9 12 33 25 93 13 61 22 114
21 120 -2 5 -13 -37 -25 -93z"/>
<path d="M585 485 c27 -12 28 -13 8 -14 -42 -2 -24 -19 30 -30 104 -20 127
-22 121 -7 -6 15 66 8 211 -23 250 -53 263 -55 296 -42 21 8 19 9 -16 10 -87
3 -95 4 -90 11 5 7 -3 9 -52 13 -18 1 -33 6 -33 12 0 5 -5 3 -10 -5 -5 -8 -10
-10 -10 -3 0 6 -9 9 -20 6 -11 -3 -20 -1 -20 5 0 6 -9 9 -20 7 -11 -2 -20 0
-20 4 0 5 -13 7 -30 6 -16 -1 -30 1 -30 6 0 4 -9 6 -20 4 -11 -2 -20 0 -20 4
0 5 -10 8 -22 7 -13 -1 -72 8 -133 21 -130 26 -164 29 -120 8z m130 -36 c12
-5 2 -6 -25 -2 -25 3 -52 9 -60 14 -18 10 57 -1 85 -12z"/>
<path d="M760 421 c0 -6 2 -11 4 -11 4 0 91 -17 126 -25 49 -11 115 -18 109
-11 -3 3 -41 12 -85 20 -93 17 -113 22 -136 31 -11 4 -18 3 -18 -4z"/>
<path d="M1025 361 c11 -5 40 -11 65 -15 29 -4 38 -3 25 3 -11 5 -40 11 -65
15 -29 4 -38 3 -25 -3z"/>
<path d="M1292 357 c15 -15 170 -57 208 -57 14 0 47 -7 74 -15 27 -8 79 -20
115 -26 36 -5 75 -14 86 -19 11 -5 66 -16 123 -25 57 -9 114 -20 128 -25 45
-18 127 -12 174 13 52 26 78 59 85 107 l5 35 -12 -30 c-19 -46 -39 -69 -82
-99 -49 -33 -75 -33 -244 3 -75 17 -190 40 -254 52 -65 13 -118 26 -118 31 0
4 -7 5 -15 2 -8 -4 -21 -2 -28 3 -6 5 -28 10 -47 12 -19 1 -53 7 -75 13 -22 6
-48 10 -59 9 -10 -2 -15 2 -12 8 4 6 -2 8 -14 6 -11 -2 -22 0 -25 6 -4 5 -11
9 -16 9 -6 0 -4 -6 3 -13z"/>
<path d="M1237 320 c15 -14 76 -30 111 -30 47 0 38 7 -17 14 -25 3 -47 9 -50
13 -3 4 -16 8 -29 9 -12 0 -19 -2 -15 -6z"/>
<path d="M2327 149 c-27 -28 -56 -35 -122 -30 -17 2 -17 0 -5 -8 40 -28 146
-4 156 35 9 35 3 36 -29 3z"/>
</g>

</svg>
