<?xml version="1.0" standalone="no"?>
<!DOCTYPE svg PUBLIC "-//W3C//DTD SVG 20010904//EN"
 "http://www.w3.org/TR/2001/REC-SVG-20010904/DTD/svg10.dtd">
<svg version="1.0" xmlns="http://www.w3.org/2000/svg"
 width="300.000000pt" height="300.000000pt" viewBox="0 0 300.000000 300.000000"
 preserveAspectRatio="xMidYMid meet">
<metadata>
Created by potrace 1.10, written by Peter Selinger 2001-2011
</metadata>
<g transform="translate(0.000000,300.000000) scale(0.100000,-0.100000)"
fill="#FFFFFF" stroke="none">
<path d="M1446 2594 c-26 -26 -24 -71 4 -95 17 -15 19 -33 21 -159 1 -124 -1
-144 -16 -152 -39 -22 -37 -100 4 -113 14 -4 16 -36 16 -275 0 -148 -2 -270
-5 -270 -3 0 -24 22 -47 49 l-43 50 0 153 c0 144 1 154 21 166 15 10 19 21 17
50 -2 31 -9 40 -35 52 -31 14 -33 18 -33 72 0 48 4 61 25 82 30 30 31 45 4 80
-51 65 -138 -1 -99 -75 6 -10 17 -19 25 -19 12 0 15 -15 15 -68 l0 -67 -150
149 c-142 141 -169 176 -136 176 20 0 31 19 18 32 -8 8 -15 8 -25 -1 -8 -6
-30 -10 -48 -9 -33 3 -34 2 -37 -40 -3 -43 -3 -44 26 -41 27 3 48 -14 186
-144 144 -137 155 -150 149 -177 -4 -23 0 -34 21 -53 21 -20 26 -33 26 -72 l0
-47 -39 33 c-34 29 -39 38 -34 66 6 40 -24 73 -67 73 -23 0 -33 -6 -40 -25
-17 -45 20 -103 60 -92 15 4 33 -9 70 -50 49 -54 50 -55 50 -120 l0 -66 -115
119 -114 119 -1 74 c0 66 2 75 25 93 29 22 32 54 9 86 -21 30 -77 30 -98 0
-23 -32 -20 -55 9 -84 22 -22 26 -33 23 -80 l-3 -53 -107 106 c-90 88 -106
108 -98 124 41 75 -51 147 -108 86 -28 -30 -28 -54 3 -99 14 -20 25 -44 25
-52 0 -10 9 -16 25 -16 19 0 25 5 25 22 0 17 78 -57 311 -294 l310 -317 2
-190 2 -191 -31 0 -31 0 -7 160 c-7 160 -24 235 -52 235 -6 0 -90 77 -187 171
-165 160 -177 173 -171 201 12 58 -59 100 -104 60 -15 -13 -22 -13 -52 -1 -19
7 -43 16 -52 20 -10 3 -18 14 -18 24 0 24 -46 60 -75 60 -13 0 -32 -8 -43 -17
-33 -29 -35 -56 -7 -97 14 -20 25 -43 25 -51 0 -9 10 -15 25 -15 14 0 25 5 25
12 0 6 9 21 20 33 20 22 22 22 75 6 37 -11 55 -21 55 -32 0 -26 46 -62 72 -56
18 5 36 -7 94 -63 l72 -70 -62 0 c-57 0 -65 3 -94 33 -18 18 -32 40 -32 48 0
25 -34 49 -69 49 -38 0 -48 -18 -29 -57 10 -21 21 -29 47 -31 19 -2 46 -12 59
-23 l25 -19 -102 0 c-98 0 -102 1 -111 24 -20 52 -93 61 -119 14 -14 -24 -13
-29 13 -67 20 -28 36 -41 52 -41 13 0 24 6 24 13 0 28 38 32 237 27 l203 -5
80 -80 c44 -44 80 -82 80 -85 0 -3 -30 -3 -67 -2 -76 4 -103 20 -103 62 0 36
-31 62 -67 58 -21 -2 -29 -9 -31 -26 -4 -27 23 -62 47 -62 18 -1 51 -23 51
-35 0 -4 -21 -5 -47 -1 -53 7 -113 48 -113 77 0 33 -36 59 -81 59 -41 0 -41 0
-35 -32 9 -45 33 -68 71 -68 18 0 38 -7 45 -15 11 -13 0 -15 -88 -15 -95 0
-100 1 -116 25 -33 51 -116 22 -116 -40 0 -28 40 -65 69 -65 12 0 32 11 45 25
23 24 27 25 162 25 l138 0 -43 -44 c-41 -42 -46 -44 -65 -30 -29 20 -43 18
-71 -11 -46 -45 -22 -105 43 -105 32 0 62 29 62 60 0 9 26 41 58 73 57 56 58
57 117 57 l59 0 -24 -22 c-13 -12 -38 -29 -54 -38 -37 -18 -44 -50 -16 -75 17
-15 24 -16 46 -6 24 10 26 16 21 51 -4 35 -2 42 28 65 41 31 109 35 123 8 6
-10 12 -89 14 -176 l4 -157 -117 0 c-111 0 -119 -1 -147 -25 -49 -41 -48 -109
1 -147 12 -10 16 -18 10 -18 -7 0 -13 -7 -13 -15 0 -11 12 -15 45 -15 l45 0 0
-60 c0 -63 9 -74 33 -40 l14 20 18 -20 c29 -32 35 -24 35 40 l0 61 281 -1 281
-1 13 25 c9 16 10 28 4 32 -5 3 -172 4 -370 2 l-361 -3 -19 24 c-25 30 -24 66
1 91 37 37 50 26 50 -42 l0 -61 23 21 23 22 22 -22 22 -22 0 62 0 63 308 -2
c254 -1 307 1 307 12 0 11 -30 15 -143 17 l-144 3 4 158 c4 186 6 191 82 191
46 0 55 -3 74 -29 13 -18 18 -32 12 -36 -31 -19 9 -91 46 -83 48 9 43 82 -6
93 -26 6 -50 30 -50 49 0 3 22 6 48 6 45 0 51 -3 110 -63 34 -34 62 -70 62
-78 0 -43 73 -65 103 -31 46 51 -2 128 -65 104 -27 -10 -34 -8 -69 20 -22 17
-39 35 -39 40 0 4 63 8 140 8 116 0 140 -2 140 -15 0 -18 31 -35 63 -35 51 0
78 70 42 110 -29 32 -105 20 -105 -15 0 -12 -17 -15 -87 -15 -49 0 -99 -3
-113 -7 -25 -6 -25 -6 -6 15 13 15 31 22 57 22 44 0 69 27 69 72 0 25 -3 28
-36 28 -48 0 -71 -14 -79 -50 -12 -55 -118 -103 -152 -69 -8 8 -13 8 -17 0 -4
-6 -39 -11 -84 -11 l-77 0 82 81 82 81 113 3 c341 10 312 11 323 -13 15 -35
47 -27 77 18 29 46 27 76 -8 92 -35 16 -74 2 -87 -32 l-11 -30 -105 0 c-103 0
-104 0 -86 20 12 13 31 20 55 20 45 0 60 14 60 57 0 32 -1 33 -39 33 -40 0
-71 -25 -71 -57 0 -7 -15 -27 -32 -43 -29 -26 -41 -29 -92 -30 l-60 0 75 69
c57 54 79 68 96 64 26 -6 78 40 70 61 -4 10 8 16 41 21 26 4 53 12 60 17 16
14 52 -17 52 -44 0 -30 43 -23 58 10 7 15 20 39 30 55 15 25 16 29 2 54 -34
60 -115 52 -134 -14 -8 -27 -16 -32 -61 -43 -39 -9 -57 -10 -73 -1 -54 29
-108 -3 -100 -59 4 -27 -9 -43 -169 -202 -96 -95 -178 -172 -183 -171 -5 2
-19 -14 -32 -35 -21 -34 -23 -50 -26 -199 l-4 -163 -33 0 -34 0 5 193 4 192
312 314 c277 279 312 311 319 292 10 -25 49 -29 49 -5 0 8 11 30 25 48 31 40
29 81 -4 107 -50 40 -111 12 -111 -50 0 -20 4 -41 8 -46 5 -6 -40 -57 -105
-119 l-113 -109 0 57 c0 50 3 61 25 78 47 37 22 108 -38 108 -49 0 -79 -55
-53 -95 9 -14 21 -25 26 -25 6 0 10 -34 10 -78 l0 -77 -116 -115 -116 -115 6
40 c3 22 6 52 6 66 0 34 85 119 118 119 12 0 31 9 42 20 37 37 19 100 -29 100
-36 0 -64 -31 -63 -69 0 -21 -10 -41 -33 -65 -18 -19 -35 -32 -38 -29 -13 12
7 98 25 113 18 14 25 42 17 66 -2 6 65 78 148 159 143 137 155 146 183 140 29
-6 30 -6 30 33 0 44 -19 67 -50 59 -11 -3 -23 -1 -26 4 -10 17 -34 9 -34 -11
0 -11 7 -20 15 -20 9 0 15 -9 15 -25 0 -17 -6 -25 -17 -25 -10 0 -27 -13 -38
-28 -11 -15 -72 -77 -135 -139 l-115 -112 4 62 c2 49 8 66 27 84 45 42 21 113
-38 113 -53 0 -82 -85 -38 -112 17 -11 20 -24 20 -75 0 -49 -3 -63 -15 -63
-24 0 -55 -37 -55 -65 0 -15 11 -36 25 -49 32 -29 34 -85 5 -111 -24 -21 -26
-40 -5 -31 13 4 15 -9 15 -87 l0 -93 -50 -49 -50 -50 2 273 c2 245 4 272 19
277 25 8 43 58 30 84 -6 11 -18 24 -27 29 -24 13 -23 291 1 304 37 21 38 86 1
110 -19 13 -64 9 -80 -8z m72 -45 c4 -30 -22 -46 -44 -28 -15 12 -19 41 -7 53
16 16 48 1 51 -25z m500 -183 c3 -13 -1 -17 -14 -14 -11 2 -20 11 -22 22 -3
13 1 17 14 14 11 -2 20 -11 22 -22z m-663 -121 c0 -23 -5 -30 -19 -30 -28 0
-43 29 -26 50 21 25 45 14 45 -20z m323 3 c2 -19 -2 -28 -17 -33 -27 -8 -41 1
-41 29 0 29 9 38 35 34 13 -2 21 -12 23 -30z m-818 -37 c8 -15 6 -29 -7 -55
-9 -20 -21 -36 -27 -36 -12 0 -46 55 -46 74 0 36 62 49 80 17z m1333 1 c-2 -6
2 -12 7 -12 19 0 10 -37 -14 -59 l-25 -23 -20 33 c-12 19 -21 37 -21 42 0 16
17 6 30 -18 10 -19 16 -22 27 -14 19 16 16 29 -6 29 -23 0 -35 15 -26 31 9 14
51 7 48 -9z m-673 -63 c14 -26 -4 -51 -34 -47 -21 3 -32 28 -22 54 8 21 44 17
56 -7z m-391 -33 c9 -11 10 -20 1 -35 -13 -25 -20 -26 -44 -8 -13 10 -16 20
-12 35 8 25 38 29 55 8z m772 -2 c9 -11 10 -20 3 -32 -15 -23 -29 -25 -48 -7
-12 12 -13 21 -6 36 13 23 33 25 51 3z m-513 -110 c4 -29 -23 -51 -43 -34 -16
13 -20 42 -8 54 14 14 48 1 51 -20z m257 -9 c0 -23 -5 -30 -19 -30 -28 0 -43
29 -26 50 21 25 45 14 45 -20z m-917 -7 c-2 -6 -12 -16 -21 -22 -13 -8 -20 -7
-27 4 -16 24 -12 30 21 30 19 0 29 -4 27 -12z m1582 -2 c0 -22 -19 -30 -35
-16 -22 18 -18 30 10 30 15 0 25 -6 25 -14z m-1630 -49 c0 -4 4 -5 10 -2 6 4
7 -1 4 -12 -3 -10 4 -3 16 15 12 17 26 32 31 32 17 0 9 -27 -17 -55 l-26 -28
-24 29 c-13 16 -23 38 -23 49 0 20 0 20 14 1 8 -11 15 -24 15 -29z m1594 -2
c10 -19 16 -24 16 -12 0 9 4 17 8 17 5 0 14 10 20 23 10 22 11 22 11 1 1 -12
-9 -34 -21 -49 l-22 -28 -23 29 c-12 16 -23 38 -23 49 0 23 12 12 34 -30z
m-1030 13 c13 -22 -5 -44 -28 -35 -22 9 -22 60 0 55 9 -2 22 -11 28 -20z m543
6 c3 -8 -1 -23 -10 -31 -23 -23 -52 0 -36 28 12 23 37 25 46 3z m-823 -67 c9
-15 7 -21 -9 -33 -10 -8 -24 -13 -29 -11 -17 6 -29 34 -23 51 9 22 46 17 61
-7z m1106 4 c7 -15 6 -23 -6 -35 -8 -9 -19 -16 -23 -16 -17 0 -32 30 -26 50 8
25 41 26 55 1z m-1180 -136 c0 -8 -4 -15 -9 -15 -15 0 -42 31 -35 41 8 13 44
-8 44 -26z m1240 15 c0 -24 -26 -38 -42 -22 -8 8 -8 15 2 27 18 21 40 19 40
-5z m-1424 -65 c16 -24 16 -27 -1 -45 -24 -27 -32 -25 -50 9 -13 27 -13 31 1
45 21 22 31 20 50 -9z m1622 13 c17 -17 15 -31 -10 -57 -20 -23 -22 -23 -35
-5 -18 25 -16 51 5 63 22 13 26 13 40 -1z m-1383 -154 c21 -22 5 -40 -23 -25
-11 6 -22 17 -26 26 -8 21 28 20 49 -1z m1135 1 c0 -14 -29 -35 -49 -35 -15 0
-14 23 1 38 17 17 48 15 48 -3z m-970 -16 c0 -25 -33 -22 -38 4 -2 12 3 17 17
17 15 0 21 -6 21 -21z m-356 -71 c16 -27 -14 -54 -43 -39 -24 13 -27 31 -9 49
16 16 38 12 52 -10z m1521 -13 c0 -25 -4 -30 -24 -30 -32 0 -49 28 -31 50 7 9
23 15 34 13 16 -2 21 -10 21 -33z m-1088 -111 c7 -18 -17 -38 -31 -24 -11 11
-1 40 14 40 6 0 13 -7 17 -16z m641 -7 c2 -12 -3 -17 -17 -17 -15 0 -21 6 -21
21 0 25 33 22 38 -4z m-863 -15 c9 -23 -21 -49 -42 -36 -24 15 -26 29 -8 47
18 18 40 13 50 -11z m1095 13 c19 -23 8 -50 -20 -50 -19 0 -26 6 -28 24 -5 35
26 53 48 26z m-798 -451 c3 -3 4 -14 1 -25 -4 -15 -8 -17 -19 -8 -18 15 -18
39 -1 39 8 0 16 -3 19 -6z"/>
<path d="M802 2178 c5 -15 37 -18 41 -4 1 5 -9 11 -21 13 -16 2 -22 -1 -20 -9z"/>
<path d="M1143 2545 c-8 -9 -13 -44 -13 -94 l0 -79 48 -6 c64 -9 90 -9 142 -1
l45 7 -3 71 c-4 124 -15 137 -82 102 -25 -13 -32 -13 -64 0 -43 18 -57 18 -73
0z m80 -35 c5 -4 10 -31 12 -59 4 -47 2 -50 -15 -41 -10 5 -28 10 -40 10 -16
0 -20 4 -16 16 3 9 6 34 6 55 0 37 2 40 23 34 12 -4 26 -11 30 -15z m107 -34
c0 -43 -4 -55 -17 -59 -10 -2 -26 -8 -35 -12 -16 -6 -18 -1 -18 49 0 49 3 58
23 66 42 17 47 13 47 -44z"/>
<path d="M1622 2548 c-7 -7 -12 -43 -12 -94 l0 -81 48 -8 c54 -8 80 -8 142 1
l45 6 -3 86 c-2 48 -8 91 -13 97 -6 6 -25 4 -55 -7 -40 -14 -49 -14 -72 -2
-33 17 -64 18 -80 2z m73 -30 c22 -10 25 -17 25 -63 l0 -52 -35 11 c-34 11
-35 12 -35 63 0 56 4 60 45 41z m115 -43 c0 -48 -3 -55 -19 -55 -11 0 -23 -4
-26 -10 -15 -24 -25 -6 -25 43 0 46 3 56 23 65 42 20 47 15 47 -43z"/>
<path d="M1844 1575 c-20 -31 -13 -52 21 -61 35 -9 53 1 61 31 9 38 -2 55 -35
55 -21 0 -35 -8 -47 -25z m60 -26 c-8 -14 -34 -11 -34 4 0 8 3 17 7 20 9 9 34
-13 27 -24z"/>
<path d="M1678 1033 c34 -2 88 -2 120 0 31 2 3 3 -63 3 -66 0 -92 -1 -57 -3z"/>
<path d="M1665 990 c89 -11 173 -11 180 0 4 6 -37 9 -117 9 -105 -2 -114 -3
-63 -9z"/>
<path d="M1115 752 c-17 -4 -31 -15 -33 -25 -3 -16 22 -17 402 -17 399 0 406
0 406 20 0 20 -7 20 -344 20 -189 0 -356 2 -372 4 -16 2 -42 1 -59 -2z"/>
<path d="M1080 645 c0 -46 19 -84 44 -90 34 -8 409 -12 590 -6 123 4 171 9
174 19 3 9 -76 12 -370 12 -419 0 -418 0 -418 66 0 19 -4 34 -10 34 -5 0 -10
-16 -10 -35z"/>
<path d="M1130 651 c0 -7 28 -11 70 -11 39 0 70 4 70 8 0 5 -31 10 -70 11 -44
1 -70 -2 -70 -8z"/>
<path d="M1670 650 c0 -6 37 -10 90 -10 53 0 90 4 90 10 0 6 -37 10 -90 10
-53 0 -90 -4 -90 -10z"/>
<path d="M1185 610 c-30 -5 -17 -8 54 -9 52 0 92 1 90 3 -10 8 -107 13 -144 6z"/>
<path d="M1468 612 c18 -12 382 -13 382 -1 0 5 -83 9 -197 9 -109 0 -192 -4
-185 -8z"/>
<path d="M2030 486 c0 -8 4 -17 9 -20 11 -7 33 18 24 27 -12 12 -33 7 -33 -7z"/>
<path d="M1091 481 c-16 -11 135 -25 197 -19 22 2 38 0 36 -4 -13 -21 558 0
580 22 13 13 -793 14 -813 1z"/>
</g>
</svg>
